<?xml version="1.0" encoding="utf-8"?>
<!-- Generator: Adobe Illustrator 24.0.1, SVG Export Plug-In . SVG Version: 6.00 Build 0)  -->
<svg version="1.1" id="图层_1" xmlns="http://www.w3.org/2000/svg" xmlns:xlink="http://www.w3.org/1999/xlink" x="0px" y="0px"
	 viewBox="0 0 24 87.7" style="enable-background:new 0 0 24 87.7;" xml:space="preserve">
<style type="text/css">
	.st0{fill:#EAEAF2;}
	.st1{fill:#262626;stroke:#262626;stroke-width:0.3682;stroke-linejoin:round;}
	.st2{fill:#262626;}
	.st3{fill:none;stroke:#FFFFFF;stroke-width:0.3682;stroke-linecap:square;}
</style>
<g id="axes_2">
	<g id="patch_7">
		<path class="st0" d="M5.3,83h3.9V4.6H5.3V83z"/>
	</g>
	<g id="matplotlib.axis_3">
	</g>
	<g id="matplotlib.axis_4">
		<g id="ytick_6">
			<g id="line2d_11">
				<g>
					<g>
						<path id="m5c61b4ea6e" class="st1" d="M9.3,83H11"/>
					</g>
				</g>
			</g>
			<g id="text_11">
				<g transform="translate(383.9576 313.852711) scale(0.165 -0.165)">
					<g>
						<path id="DejaVuSans-30_25_" class="st2" d="M-2244.6,1407.4c-1.5,0-2.6-0.7-3.4-2.2c-0.8-1.5-1.1-3.7-1.1-6.6
							c0-2.9,0.4-5.1,1.1-6.6c0.8-1.5,1.9-2.2,3.4-2.2c1.5,0,2.6,0.7,3.4,2.2c0.8,1.5,1.1,3.7,1.1,6.6c0,3-0.4,5.2-1.1,6.6
							C-2242,1406.7-2243.1,1407.4-2244.6,1407.4z M-2244.6,1409.7c2.4,0,4.2-1,5.5-2.9c1.3-1.9,1.9-4.7,1.9-8.3
							c0-3.6-0.6-6.4-1.9-8.3c-1.3-1.9-3.1-2.9-5.5-2.9c-2.4,0-4.2,1-5.5,2.9c-1.3,1.9-1.9,4.7-1.9,8.3c0,3.6,0.6,6.4,1.9,8.3
							C-2248.8,1408.7-2247,1409.7-2244.6,1409.7z"/>
					</g>
					<g>
						<path id="DejaVuSans-2e_10_" class="st2" d="M-2232.1,1391.5h3v-3.7h-3V1391.5z"/>
					</g>
					<g>
						<path id="DejaVuSans-30_26_" class="st2" d="M-2216.5,1407.4c-1.5,0-2.6-0.7-3.4-2.2c-0.8-1.5-1.1-3.7-1.1-6.6
							c0-2.9,0.4-5.1,1.1-6.6c0.8-1.5,1.9-2.2,3.4-2.2c1.5,0,2.6,0.7,3.4,2.2c0.8,1.5,1.1,3.7,1.1,6.6c0,3-0.4,5.2-1.1,6.6
							C-2213.9,1406.7-2215,1407.4-2216.5,1407.4z M-2216.5,1409.7c2.4,0,4.2-1,5.5-2.9c1.3-1.9,1.9-4.7,1.9-8.3
							c0-3.6-0.6-6.4-1.9-8.3c-1.3-1.9-3.1-2.9-5.5-2.9c-2.4,0-4.2,1-5.5,2.9c-1.3,1.9-1.9,4.7-1.9,8.3c0,3.6,0.6,6.4,1.9,8.3
							C-2220.7,1408.7-2218.9,1409.7-2216.5,1409.7z"/>
					</g>
				</g>
			</g>
		</g>
		<g id="ytick_7">
			<g id="line2d_12">
				<g>
					<g>
						<path id="m5c61b4ea6e_1_" class="st1" d="M9.3,67.3H11"/>
					</g>
				</g>
			</g>
			<g id="text_12">
				<g transform="translate(383.9576 260.630311) scale(0.165 -0.165)">
					<g>
						<path id="DejaVuSans-30_27_" class="st2" d="M-2244.6,1179.8c-1.5,0-2.6-0.7-3.4-2.2c-0.8-1.5-1.1-3.7-1.1-6.6
							c0-2.9,0.4-5.1,1.1-6.6c0.8-1.5,1.9-2.2,3.4-2.2c1.5,0,2.6,0.7,3.4,2.2c0.8,1.5,1.1,3.7,1.1,6.6c0,3-0.4,5.2-1.1,6.6
							C-2242,1179.1-2243.1,1179.8-2244.6,1179.8z M-2244.6,1182.1c2.4,0,4.2-1,5.5-2.9c1.3-1.9,1.9-4.7,1.9-8.3
							c0-3.6-0.6-6.4-1.9-8.3c-1.3-1.9-3.1-2.9-5.5-2.9c-2.4,0-4.2,1-5.5,2.9c-1.3,1.9-1.9,4.7-1.9,8.3c0,3.6,0.6,6.4,1.9,8.3
							C-2248.8,1181.2-2247,1182.1-2244.6,1182.1z"/>
					</g>
					<g>
						<path id="DejaVuSans-2e_11_" class="st2" d="M-2232.1,1163.9h3v-3.7h-3V1163.9z"/>
					</g>
					<g>
						<path id="DejaVuSans-32_4_" class="st2" d="M-2220.2,1162.7h10.1v-2.4h-13.6v2.4c1.1,1.1,2.6,2.7,4.5,4.6
							c1.9,1.9,3.1,3.2,3.6,3.7c0.9,1,1.6,1.9,1.9,2.7c0.4,0.7,0.6,1.4,0.6,2.1c0,1.1-0.4,2.1-1.2,2.8c-0.8,0.7-1.8,1.1-3.1,1.1
							c-0.9,0-1.9-0.2-2.9-0.5c-1-0.3-2.1-0.8-3.2-1.4v2.9c1.2,0.5,2.3,0.8,3.3,1.1c1,0.2,1.9,0.4,2.8,0.4c2.2,0,4-0.6,5.3-1.7
							c1.3-1.1,2-2.6,2-4.5c0-0.9-0.2-1.7-0.5-2.5c-0.3-0.8-0.9-1.7-1.8-2.8c-0.2-0.3-1-1.1-2.3-2.4
							C-2216.1,1167-2217.9,1165.1-2220.2,1162.7z"/>
					</g>
				</g>
			</g>
		</g>
		<g id="ytick_8">
			<g id="line2d_13">
				<g>
					<g>
						<path id="m5c61b4ea6e_2_" class="st1" d="M9.3,51.7H11"/>
					</g>
				</g>
			</g>
			<g id="text_13">
				<g transform="translate(383.9576 207.407911) scale(0.165 -0.165)">
					<g>
						<path id="DejaVuSans-30_28_" class="st2" d="M-2244.6,952.3c-1.5,0-2.6-0.7-3.4-2.2c-0.8-1.5-1.1-3.7-1.1-6.6
							c0-2.9,0.4-5.1,1.1-6.6c0.8-1.5,1.9-2.2,3.4-2.2c1.5,0,2.6,0.7,3.4,2.2c0.8,1.5,1.1,3.7,1.1,6.6c0,3-0.4,5.2-1.1,6.6
							C-2242,951.6-2243.1,952.3-2244.6,952.3z M-2244.6,954.6c2.4,0,4.2-1,5.5-2.9c1.3-1.9,1.9-4.7,1.9-8.3c0-3.6-0.6-6.4-1.9-8.3
							c-1.3-1.9-3.1-2.9-5.5-2.9c-2.4,0-4.2,1-5.5,2.9c-1.3,1.9-1.9,4.7-1.9,8.3c0,3.6,0.6,6.4,1.9,8.3
							C-2248.8,953.6-2247,954.6-2244.6,954.6z"/>
					</g>
					<g>
						<path id="DejaVuSans-2e_12_" class="st2" d="M-2232.1,936.4h3v-3.7h-3V936.4z"/>
					</g>
					<g>
						<path id="DejaVuSans-34_2_" class="st2" d="M-2214.7,951.7l-7.3-11.5h7.3V951.7z M-2215.5,954.2h3.7v-14h3.1v-2.4h-3.1v-5.1
							h-2.9v5.1h-9.7v2.8L-2215.5,954.2z"/>
					</g>
				</g>
			</g>
		</g>
		<g id="ytick_9">
			<g id="line2d_14">
				<g>
					<g>
						<path id="m5c61b4ea6e_3_" class="st1" d="M9.3,36H11"/>
					</g>
				</g>
			</g>
			<g id="text_14">
				<g transform="translate(383.9576 154.185511) scale(0.165 -0.165)">
					<g>
						<path id="DejaVuSans-30_29_" class="st2" d="M-2244.6,724.7c-1.5,0-2.6-0.7-3.4-2.2c-0.8-1.5-1.1-3.7-1.1-6.6
							c0-2.9,0.4-5.1,1.1-6.6c0.8-1.5,1.9-2.2,3.4-2.2c1.5,0,2.6,0.7,3.4,2.2c0.8,1.5,1.1,3.7,1.1,6.6c0,3-0.4,5.2-1.1,6.6
							C-2242,724-2243.1,724.7-2244.6,724.7z M-2244.6,727c2.4,0,4.2-1,5.5-2.9c1.3-1.9,1.9-4.7,1.9-8.3c0-3.6-0.6-6.4-1.9-8.3
							c-1.3-1.9-3.1-2.9-5.5-2.9c-2.4,0-4.2,1-5.5,2.9c-1.3,1.9-1.9,4.7-1.9,8.3c0,3.6,0.6,6.4,1.9,8.3
							C-2248.8,726.1-2247,727-2244.6,727z"/>
					</g>
					<g>
						<path id="DejaVuSans-2e_13_" class="st2" d="M-2232.1,708.8h3v-3.7h-3V708.8z"/>
					</g>
					<g>
						<path id="DejaVuSans-36" class="st2" d="M-2216.1,717.1c-1.3,0-2.3-0.4-3.1-1.3c-0.8-0.9-1.1-2.1-1.1-3.7
							c0-1.5,0.4-2.8,1.1-3.7c0.8-0.9,1.8-1.3,3.1-1.3c1.3,0,2.3,0.4,3.1,1.3c0.8,0.9,1.1,2.1,1.1,3.7c0,1.6-0.4,2.8-1.1,3.7
							C-2213.8,716.6-2214.8,717.1-2216.1,717.1z M-2210.4,726.2v-2.6c-0.7,0.3-1.5,0.6-2.2,0.8c-0.7,0.2-1.5,0.3-2.2,0.3
							c-1.9,0-3.4-0.6-4.4-1.9c-1-1.3-1.6-3.3-1.7-5.9c0.6,0.8,1.3,1.5,2.1,1.9c0.9,0.4,1.8,0.7,2.8,0.7c2.2,0,3.9-0.7,5.1-2
							c1.3-1.3,1.9-3.1,1.9-5.3c0-2.2-0.7-4-2-5.3c-1.3-1.3-3-2-5.2-2c-2.5,0-4.4,1-5.7,2.9c-1.3,1.9-2,4.7-2,8.3
							c0,3.4,0.8,6.1,2.4,8.1c1.6,2,3.8,3,6.5,3c0.7,0,1.5-0.1,2.2-0.2C-2212,726.7-2211.2,726.5-2210.4,726.2z"/>
					</g>
				</g>
			</g>
		</g>
		<g id="ytick_10">
			<g id="line2d_15">
				<g>
					<g>
						<path id="m5c61b4ea6e_4_" class="st1" d="M9.3,20.3H11"/>
					</g>
				</g>
			</g>
			<g id="text_15">
				<g transform="translate(383.9576 100.963111) scale(0.165 -0.165)">
					<g>
						<path id="DejaVuSans-30_30_" class="st2" d="M-2244.6,497.2c-1.5,0-2.6-0.7-3.4-2.2c-0.8-1.5-1.1-3.7-1.1-6.6
							c0-2.9,0.4-5.1,1.1-6.6c0.8-1.5,1.9-2.2,3.4-2.2c1.5,0,2.6,0.7,3.4,2.2c0.8,1.5,1.1,3.7,1.1,6.6c0,3-0.4,5.2-1.1,6.6
							C-2242,496.4-2243.1,497.2-2244.6,497.2z M-2244.6,499.5c2.4,0,4.2-1,5.5-2.9c1.3-1.9,1.9-4.7,1.9-8.3c0-3.6-0.6-6.4-1.9-8.3
							c-1.3-1.9-3.1-2.9-5.5-2.9c-2.4,0-4.2,1-5.5,2.9c-1.3,1.9-1.9,4.7-1.9,8.3c0,3.6,0.6,6.4,1.9,8.3
							C-2248.8,498.5-2247,499.5-2244.6,499.5z"/>
					</g>
					<g>
						<path id="DejaVuSans-2e_14_" class="st2" d="M-2232.1,481.3h3v-3.7h-3V481.3z"/>
					</g>
					<g>
						<path id="DejaVuSans-38" class="st2" d="M-2216.5,487.8c-1.4,0-2.5-0.4-3.3-1.1c-0.8-0.7-1.2-1.8-1.2-3c0-1.3,0.4-2.3,1.2-3.1
							c0.8-0.7,1.9-1.1,3.3-1.1s2.5,0.4,3.3,1.1c0.8,0.7,1.2,1.8,1.2,3c0,1.3-0.4,2.3-1.2,3C-2214,487.5-2215.1,487.8-2216.5,487.8z
							 M-2219.4,489.1c-1.2,0.3-2.2,0.9-2.9,1.7c-0.7,0.9-1,1.9-1,3.1c0,1.7,0.6,3.1,1.8,4.1c1.2,1,2.9,1.5,5,1.5
							c2.1,0,3.8-0.5,5-1.5c1.2-1,1.8-2.4,1.8-4.1c0-1.2-0.3-2.3-1-3.1c-0.7-0.9-1.7-1.4-2.9-1.7c1.4-0.3,2.5-1,3.3-1.9
							c0.8-0.9,1.2-2.1,1.2-3.5c0-2.1-0.6-3.7-1.9-4.8c-1.3-1.1-3.1-1.7-5.5-1.7c-2.4,0-4.2,0.6-5.5,1.7c-1.3,1.1-1.9,2.7-1.9,4.8
							c0,1.4,0.4,2.5,1.2,3.5C-2221.9,488.1-2220.8,488.7-2219.4,489.1z M-2220.5,493.6c0-1.1,0.3-2,1-2.6c0.7-0.6,1.7-0.9,2.9-0.9
							c1.2,0,2.2,0.3,2.9,0.9c0.7,0.6,1.1,1.5,1.1,2.6c0,1.1-0.4,2-1.1,2.6c-0.7,0.6-1.7,0.9-2.9,0.9c-1.3,0-2.2-0.3-2.9-0.9
							C-2220.1,495.6-2220.5,494.8-2220.5,493.6z"/>
					</g>
				</g>
			</g>
		</g>
		<g id="ytick_11">
			<g id="line2d_16">
				<g>
					<g>
						<path id="m5c61b4ea6e_5_" class="st1" d="M9.3,4.6H11"/>
					</g>
				</g>
			</g>
			<g id="text_16">
				<g transform="translate(383.9576 47.740711) scale(0.165 -0.165)">
					<g>
						<path id="DejaVuSans-31" class="st2" d="M-2250.3,252.5h4.7v16.4l-5.2-1v2.6l5.1,1h2.9v-19h4.7v-2.4h-12.4V252.5z"/>
					</g>
					<g>
						<path id="DejaVuSans-2e_15_" class="st2" d="M-2232.1,253.7h3v-3.7h-3V253.7z"/>
					</g>
					<g>
						<path id="DejaVuSans-30_31_" class="st2" d="M-2216.5,269.6c-1.5,0-2.6-0.7-3.4-2.2c-0.8-1.5-1.1-3.7-1.1-6.6
							c0-2.9,0.4-5.1,1.1-6.6c0.8-1.5,1.9-2.2,3.4-2.2c1.5,0,2.6,0.7,3.4,2.2c0.8,1.5,1.1,3.7,1.1,6.6c0,3-0.4,5.2-1.1,6.6
							C-2213.9,268.9-2215,269.6-2216.5,269.6z M-2216.5,271.9c2.4,0,4.2-1,5.5-2.9c1.3-1.9,1.9-4.7,1.9-8.3c0-3.6-0.6-6.4-1.9-8.3
							c-1.3-1.9-3.1-2.9-5.5-2.9c-2.4,0-4.2,1-5.5,2.9c-1.3,1.9-1.9,4.7-1.9,8.3c0,3.6,0.6,6.4,1.9,8.3
							C-2220.7,271-2218.9,271.9-2216.5,271.9z"/>
					</g>
				</g>
			</g>
		</g>
	</g>
	
		<image style="overflow:visible;enable-background:new    ;" width="18" height="369" id="image41df20b477" xlink:href="5E1652D.png"  transform="matrix(0.2121 0 0 -0.2121 5.4216 82.97)">
	</image>
	<g id="LineCollection_1">
	</g>
	<g id="patch_8">
		<path class="st3" d="M5.3,83h2h2V4.6h-2h-2V83z"/>
	</g>
</g>
</svg>
